<?xml version="1.0" encoding="UTF-8"?>
<svg version="1.1" xmlns="http://www.w3.org/2000/svg" width="225" height="225">
<path d="M0 0 C74.25 0 148.5 0 225 0 C225 74.25 225 148.5 225 225 C150.75 225 76.5 225 0 225 C0 150.75 0 76.5 0 0 Z " fill="#FDFEFD" transform="translate(0,0)"/>
<path d="M0 0 C74.25 0 148.5 0 225 0 C225 74.25 225 148.5 225 225 C150.75 225 76.5 225 0 225 C0 150.75 0 76.5 0 0 Z M33.1875 46 C23.85326847 57.16491616 16.54169375 70.89082393 13 85 C12.74677979 85.94093506 12.49355957 86.88187012 12.23266602 87.85131836 C10.19914158 95.85302684 9.56902446 103.26358056 9.6875 111.5 C9.68427734 112.62019531 9.68105469 113.74039063 9.67773438 114.89453125 C9.75237971 126.66135106 11.27569947 137.5391331 15.625 148.5 C15.97763916 149.40218262 16.33027832 150.30436523 16.69360352 151.23388672 C21.53687428 163.24795166 28.41556196 173.30248208 37 183 C37.61230469 183.69609375 38.22460938 184.3921875 38.85546875 185.109375 C54.04469741 201.30258252 78.4939514 214.27497293 100.87036133 215.10668945 C104.28926587 215.17090745 107.70551244 215.18561702 111.125 215.1875 C112.27226563 215.19974609 113.41953125 215.21199219 114.6015625 215.22460938 C125.45833678 215.24294852 136.07016698 214.20033192 146.3125 210.4375 C147.02051758 210.1799292 147.72853516 209.9223584 148.45800781 209.65698242 C162.09213318 204.47692171 173.33011921 196.83865778 184 187 C184.66257813 186.41863281 185.32515625 185.83726562 186.0078125 185.23828125 C198.51462647 173.69129254 208.22549405 155.83100277 212.625 139.5625 C212.86476562 138.69753906 213.10453125 137.83257812 213.3515625 136.94140625 C216.97087885 120.52366403 217.28551021 100.03603853 212 84 C211.80132324 83.37802734 211.60264648 82.75605469 211.39794922 82.11523438 C206.22195645 66.1879098 198.24644065 53.33700459 187 41 C186.41734375 40.33484375 185.8346875 39.6696875 185.234375 38.984375 C169.33786073 21.80329393 144.71011585 11.32493908 121.71313477 9.77905273 C85.8907471 8.51397479 57.66827006 19.33831501 33.1875 46 Z " fill="#03B1E9" transform="translate(0,0)"/>
<path d="M0 0 C1.4540625 0.0309375 1.4540625 0.0309375 2.9375 0.0625 C7.60552594 11.11972345 12.25226976 22.18548767 16.8527832 33.27099609 C19.05633472 38.57414565 21.27608838 43.86975644 23.52671814 49.15307617 C24.72617517 51.9696527 25.92093596 54.78821247 27.1156311 57.60681152 C27.70065626 58.98322255 28.28800305 60.35864934 28.8777771 61.73303223 C29.70699442 63.66591469 30.52806158 65.60208404 31.34765625 67.5390625 C31.82340088 68.65361816 32.29914551 69.76817383 32.78930664 70.91650391 C33.91918497 74.01231766 34.63688459 76.78203801 34.9375 80.0625 C33.5 81.9375 33.5 81.9375 31.9375 83.0625 C22.57265911 80.26947728 13.34206455 76.25070367 4.91796875 71.28125 C0.25062673 69.37271696 -3.5865443 70.47227952 -8.18041992 72.30932617 C-9.20756104 72.81955322 -10.23470215 73.32978027 -11.29296875 73.85546875 C-12.99163086 74.6762793 -12.99163086 74.6762793 -14.72460938 75.51367188 C-17.08895061 76.67815905 -19.45091131 77.84749125 -21.81054688 79.02148438 C-22.93912109 79.56482422 -24.06769531 80.10816406 -25.23046875 80.66796875 C-26.25422607 81.17481201 -27.2779834 81.68165527 -28.33276367 82.20385742 C-31.0625 83.0625 -31.0625 83.0625 -33.36450195 82.4621582 C-35.4925887 80.70797829 -35.68275615 79.76349202 -36.0625 77.0625 C-35.54891968 75.08171082 -35.54891968 75.08171082 -34.63818359 72.96948242 C-34.29924072 72.16788193 -33.96029785 71.36628143 -33.61108398 70.54039001 C-33.23153564 69.674991 -32.8519873 68.80959198 -32.4609375 67.91796875 C-32.07252686 67.00757339 -31.68411621 66.09717804 -31.28393555 65.15919495 C-30.01227973 62.18484052 -28.72499913 59.21752631 -27.4375 56.25 C-26.56345956 54.21371209 -25.69058005 52.17692549 -24.81884766 50.13964844 C-23.06842928 46.05070718 -21.31309021 41.9639313 -19.5546875 37.87841797 C-17.31839033 32.67241319 -15.11661822 27.4528244 -12.9375 22.22265625 C-12.63252594 21.49092697 -12.32755188 20.75919769 -12.01333618 20.0052948 C-10.87739145 17.27728595 -9.74291558 14.54867349 -8.61053467 11.81918335 C-7.85448555 9.99835304 -7.0953087 8.17882235 -6.3359375 6.359375 C-5.91747559 5.35229492 -5.49901367 4.34521484 -5.06787109 3.30761719 C-3.61978959 0.07387326 -3.61978959 0.07387326 0 0 Z " fill="#07B1E9" transform="translate(113.0625,52.9375)"/>
<path d="M0 0 C0.33 0 0.66 0 1 0 C0.9779248 1.21993652 0.95584961 2.43987305 0.93310547 3.69677734 C0.86388834 8.26334439 0.86131969 12.82802519 0.87792969 17.39501953 C0.87599407 19.36386871 0.85646113 21.33278811 0.81835938 23.30126953 C0.12828087 34.95365865 0.12828087 34.95365865 4.19189453 45.43798828 C6.67086969 47.8917 9.21002267 49.9186236 12 52 C13.86756549 54.24975533 15.40093393 56.54809869 17 59 C12.50957824 57.61833177 8.42904662 55.8171483 4.24609375 53.70703125 C-0.22833277 52.2985596 -4.22404091 54.40174989 -8.30078125 56.28515625 C-9.27724609 56.73310547 -10.25371094 57.18105469 -11.25976562 57.64257812 C-12.26716797 58.11115234 -13.27457031 58.57972656 -14.3125 59.0625 C-15.85260742 59.77116211 -15.85260742 59.77116211 -17.42382812 60.49414062 C-19.951452 61.65802325 -22.47670072 62.82677855 -25 64 C-25.33 63.34 -25.66 62.68 -26 62 C-25.05040495 59.29156982 -24.02955293 56.68700946 -22.9140625 54.046875 C-22.58143906 53.24248993 -22.24881561 52.43810486 -21.90611267 51.60934448 C-20.81964522 48.98649135 -19.72244591 46.3682762 -18.625 43.75 C-17.88329032 41.96564065 -17.14232338 40.18097238 -16.40209961 38.39599609 C-14.94069027 34.87366204 -13.47574788 31.35283036 -12.00830078 27.83300781 C-9.1159919 20.88596024 -6.29076227 13.91183678 -3.47705078 6.93261719 C-1.10958985 1.10958985 -1.10958985 1.10958985 0 0 Z " fill="#F5FBFC" transform="translate(112,63)"/>
<path d="M0 0 C1.32 0 2.64 0 4 0 C5.69832609 5.83799592 6.25287193 10.93107371 6 17 C6.66 17 7.32 17 8 17 C7.95875 15.865625 7.9175 14.73125 7.875 13.5625 C7.85816159 8.85616438 8.82378223 4.53683996 10 0 C11.32 0 12.64 0 14 0 C14.99 4.29 15.98 8.58 17 13 C17.66 8.71 18.32 4.42 19 0 C20.65 0 22.3 0 24 0 C20.65989848 27.68020305 20.65989848 27.68020305 19 31 C17.35 31 15.7 31 14 31 C13.34 25.72 12.68 20.44 12 15 C11.01 20.28 10.02 25.56 9 31 C7.35 31 5.7 31 4 31 C3.31977517 27.52334554 2.65835989 24.04335552 2 20.5625 C1.80921875 19.58861328 1.6184375 18.61472656 1.421875 17.61132812 C0.30128427 11.62817406 -0.201411 6.0863887 0 0 Z " fill="#FB6411" transform="translate(111,141)"/>
<path d="M0 0 C10 0 10 0 13.125 2 C15.69083521 6.10533634 15.54062247 8.21162958 15 13 C14.01 14.485 14.01 14.485 13 16 C13.22749563 18.7299476 13.54832197 21.30957 14 24 C14.19041712 25.33291986 14.37815732 26.66622648 14.5625 28 C14.706875 28.99 14.85125 29.98 15 31 C13.35 30.67 11.7 30.34 10 30 C9.80664062 29.21753906 9.61328125 28.43507812 9.4140625 27.62890625 C9.15367188 26.61699219 8.89328125 25.60507813 8.625 24.5625 C8.36976562 23.55316406 8.11453125 22.54382813 7.8515625 21.50390625 C7.27426046 18.84429676 7.27426046 18.84429676 5 18 C5 22.29 5 26.58 5 31 C3.35 31 1.7 31 0 31 C0 20.77 0 10.54 0 0 Z " fill="#0FB3E7" transform="translate(65,141)"/>
<path d="M0 0 C10 0 10 0 13.125 2.0625 C15.47957169 5.75132897 15.61537417 7.69238083 15 12 C13.9375 14.875 13.9375 14.875 12 17 C8.3125 17.8125 8.3125 17.8125 5 18 C5 22.29 5 26.58 5 31 C3.35 31 1.7 31 0 31 C0 20.77 0 10.54 0 0 Z " fill="#11B3E8" transform="translate(94,141)"/>
<path d="M0 0 C2 1.25 2 1.25 3 3 C3 4.32 3 5.64 3 7 C1.68 7 0.36 7 -1 7 C-1.33 6.34 -1.66 5.68 -2 5 C-4.02463255 4.34786708 -4.02463255 4.34786708 -6 4 C-5.08612147 8.87401881 -3.89003744 11.3386593 -0.375 14.875 C2.41591747 17.85779305 3.51820502 19.69421845 3.625 23.8125 C3.52345642 26.42032364 3.27186108 27.63339945 1.7109375 29.73828125 C-1.27852029 31.94283574 -4.44787487 31.53281877 -8 31 C-10 29.875 -10 29.875 -11 28 C-11.1875 24.8125 -11.1875 24.8125 -11 22 C-9.68 22 -8.36 22 -7 22 C-6.67 23.32 -6.34 24.64 -6 26 C-4.68 26 -3.36 26 -2 26 C-1.40802387 23.80085503 -1.40802387 23.80085503 -2 21 C-3.63483433 19.07767512 -5.39003864 17.42410137 -7.2734375 15.74609375 C-10.20901576 12.77730759 -10.9478519 10.5944883 -11.3125 6.4375 C-11 3 -11 3 -10 1.0625 C-6.770204 -0.65332913 -3.56988142 -0.55035672 0 0 Z " fill="#FB5F09" transform="translate(158,141)"/>
<path d="M0 0 C4.29 0 8.58 0 13 0 C13 1.32 13 2.64 13 4 C10.03 4 7.06 4 4 4 C4 6.97 4 9.94 4 13 C6.31 13 8.62 13 11 13 C11 14.32 11 15.64 11 17 C8.69 17 6.38 17 4 17 C4 20.3 4 23.6 4 27 C6.64 27 9.28 27 12 27 C12 28.32 12 29.64 12 31 C8.04 31 4.08 31 0 31 C0 20.77 0 10.54 0 0 Z " fill="#FC5D04" transform="translate(165,141)"/>
<path d="M0 0 C5.28497409 -0.44041451 5.28497409 -0.44041451 8 0 C10.5 2.5 10.5 2.5 12 5 C12.33 3.35 12.66 1.7 13 0 C14.98 0 16.96 0 19 0 C19 4.62 19 9.24 19 14 C13 14 13 14 10.125 11.625 C8 9 8 9 8 7 C7.34 7 6.68 7 6 7 C6 9.31 6 11.62 6 14 C4.02 14 2.04 14 0 14 C0 9.38 0 4.76 0 0 Z " fill="#FB7026" transform="translate(103,35)"/>
<path d="M0 0 C4.95 0 9.9 0 15 0 C15 1.32 15 2.64 15 4 C13.35 4 11.7 4 10 4 C10 12.91 10 21.82 10 31 C8.35 31 6.7 31 5 31 C5 22.09 5 13.18 5 4 C3.35 4 1.7 4 0 4 C0 2.68 0 1.36 0 0 Z " fill="#0FB2E7" transform="translate(47,141)"/>
<path d="M0 0 C1.65 0 3.3 0 5 0 C5 10.23 5 20.46 5 31 C3.35 31 1.7 31 0 31 C0 20.77 0 10.54 0 0 Z " fill="#13B3E8" transform="translate(84,141)"/>
<path d="M0 0 C1.32 0 2.64 0 4 0 C4 10.23 4 20.46 4 31 C2.68 31 1.36 31 0 31 C0 20.77 0 10.54 0 0 Z " fill="#FD5A02" transform="translate(139,141)"/>
<path d="M0 0 C1.32 0 2.64 0 4 0 C6.27678571 8.03571429 6.27678571 8.03571429 5 12 C3.68 12.33 2.36 12.66 1 13 C0.1276588 10.00519083 -0.10829766 7.36424089 -0.0625 4.25 C-0.05347656 3.45078125 -0.04445313 2.6515625 -0.03515625 1.828125 C-0.02355469 1.22484375 -0.01195313 0.6215625 0 0 Z " fill="#FB691A" transform="translate(111,141)"/>
<path d="M0 0 C2.475 0.495 2.475 0.495 5 1 C5.125 4.375 5.125 4.375 5 8 C4.34 8.66 3.68 9.32 3 10 C2.01 10 1.02 10 0 10 C0 6.7 0 3.4 0 0 Z " fill="#EEF8FA" transform="translate(70,145)"/>
<path d="M0 0 C4 1 4 1 5 2 C5.1875 4.9375 5.1875 4.9375 5 8 C4.34 8.66 3.68 9.32 3 10 C2.01 10 1.02 10 0 10 C0 6.7 0 3.4 0 0 Z " fill="#F4FAFB" transform="translate(99,145)"/>
<path d="M0 0 C1.32 0.33 2.64 0.66 4 1 C4 3.64 4 6.28 4 9 C3.67 9 3.34 9 3 9 C3 7.35 3 5.7 3 4 C2.34 4 1.68 4 1 4 C0.67 4.66 0.34 5.32 0 6 C0 4.02 0 2.04 0 0 Z " fill="#FC5A02" transform="translate(113,152)"/>
<path d="M0 0 C3 1 3 1 4 3 C3.01 3 2.02 3 1 3 C0.67 4.32 0.34 5.64 0 7 C0 6.01 0 5.02 0 4 C-0.66 4 -1.32 4 -2 4 C-2 3.01 -2 2.02 -2 1 C-1.34 0.67 -0.68 0.34 0 0 Z " fill="#FB6C1C" transform="translate(151,142)"/>
<path d="M0 0 C0.33 1.32 0.66 2.64 1 4 C1.66 4 2.32 4 3 4 C3 6.31 3 8.62 3 11 C1.5 10 1.5 10 0 8 C-0.27345479 5.28153765 -0.13491285 2.74322801 0 0 Z " fill="#FD5800" transform="translate(129,151)"/>
</svg>
